<svg enable-background="new 0 0 201 187.9" height="187.9" viewBox="0 0 201 187.9" width="201" xmlns="http://www.w3.org/2000/svg"><path d="m189.4 10.8c.8-1 .7-2.5-.3-3.3-.8-.7-2-.7-2.9-.1l-149.6 111c1 6.8 4.5 39.3 16.7 49.5 2 1.9 5 2.4 7.6 1.2 10.4-4.6 11.5-22.7 11.5-22.7z" fill="#f04e23"/><path d="m199.1 3.8c.8 1.6-1.1 3.8-1.6 5.5-3.4 13.5-11.6 38.5-26.3 77.7-17.9 47.9-29.5 75.7-35.3 86.3-1.6 3-5.1 4.4-8.4 3.4-8.6-2.7-27.2-10.2-56.1-31s-1 16.4-10.5 20.6c-2.3 1-5 .6-6.9-1.1-11.1-9.3-14.4-38.9-15.2-45-21.2-17.8-31-28.4-35.4-34.3-2.2-3-1.8-7.2 1-9.6-7.2 5.7-4.2 15.9-.6 20.2 4.1 5.5 12.7 15 30.4 30.1 2.8 21.7 7.3 41.8 24 46.8.8.3 1.6.4 2.4.5h1.2c8.4-.4 16.6-3.3 23.4-8.2 21.4 14 35.6 19.7 42.9 21.9 3.3 1 6.8-.4 8.4-3.4 5.8-10.5 20.1-38.5 38.1-86.4 14.7-39.2 22.1-64.5 25.6-78 .9-4.5 1.7-11.1-1.1-16z" fill="#04294f"/><path d="m3.3 85.9c4.4 6 14.2 16.6 35.4 34.3l136.5-100.9c1-.7 2.3-.5 3 .5.6.8.5 1.9-.1 2.6l-106.7 123.4c28.9 20.8 47.4 28.3 56.1 31 3.3 1 6.8-.4 8.4-3.4 5.8-10.5 20.1-38.5 38.1-86.4 14.7-39.2 22.1-64.5 25.6-78 .4-1.7.3-3.5-.5-5.1-1.6-3-5-4.5-8.3-3.6-16.4 4.7-48.9 14.9-92.8 32.2-48.7 19.2-80 35.9-92.4 42.9-.5.2-.9.5-1.3.9-2.8 2.4-3.3 6.6-1 9.6z" fill="#ffb400"/></svg>